<svg id="visual" viewBox="0 0 4000 3000" width="4000" height="3000" xmlns="http://www.w3.org/2000/svg" xmlns:xlink="http://www.w3.org/1999/xlink" version="1.1"><rect x="0" y="0" width="4000" height="3000" fill="#1B262c"></rect><path d="M0 1661L222.2 1640.5C444.3 1620 888.7 1579 1333.2 1561.2C1777.7 1543.3 2222.3 1548.7 2666.8 1498C3111.3 1447.3 3555.7 1340.7 3777.8 1287.3L4000 1234L4000 3001L3777.8 3001C3555.7 3001 3111.3 3001 2666.8 3001C2222.3 3001 1777.7 3001 1333.2 3001C888.7 3001 444.3 3001 222.2 3001L0 3001Z" fill="#404b69"></path><path d="M0 1804L222.2 1804C444.3 1804 888.7 1804 1333.2 1802C1777.7 1800 2222.3 1796 2666.8 1822.2C3111.3 1848.3 3555.7 1904.7 3777.8 1932.8L4000 1961L4000 3001L3777.8 3001C3555.7 3001 3111.3 3001 2666.8 3001C2222.3 3001 1777.7 3001 1333.2 3001C888.7 3001 444.3 3001 222.2 3001L0 3001Z" fill="#365878"></path><path d="M0 1902L222.2 1941.8C444.3 1981.7 888.7 2061.3 1333.2 2119.5C1777.7 2177.7 2222.3 2214.3 2666.8 2164.8C3111.3 2115.3 3555.7 1979.7 3777.8 1911.8L4000 1844L4000 3001L3777.8 3001C3555.7 3001 3111.3 3001 2666.8 3001C2222.3 3001 1777.7 3001 1333.2 3001C888.7 3001 444.3 3001 222.2 3001L0 3001Z" fill="#266683"></path><path d="M0 2548L222.2 2472.2C444.3 2396.3 888.7 2244.7 1333.2 2236.3C1777.7 2228 2222.3 2363 2666.8 2389.7C3111.3 2416.3 3555.7 2334.7 3777.8 2293.8L4000 2253L4000 3001L3777.8 3001C3555.7 3001 3111.3 3001 2666.8 3001C2222.3 3001 1777.7 3001 1333.2 3001C888.7 3001 444.3 3001 222.2 3001L0 3001Z" fill="#0e7489"></path><path d="M0 2873L222.2 2870C444.3 2867 888.7 2861 1333.2 2808C1777.7 2755 2222.3 2655 2666.8 2642.5C3111.3 2630 3555.7 2705 3777.8 2742.5L4000 2780L4000 3001L3777.8 3001C3555.7 3001 3111.3 3001 2666.8 3001C2222.3 3001 1777.7 3001 1333.2 3001C888.7 3001 444.3 3001 222.2 3001L0 3001Z" fill="#00818a"></path></svg>