<svg id="visual" viewBox="0 0 4000 3000" width="4000" height="3000" xmlns="http://www.w3.org/2000/svg" xmlns:xlink="http://www.w3.org/1999/xlink" version="1.1"><rect x="0" y="0" width="4000" height="3000" fill="#1b262c"></rect><path d="M0 2213L166.7 2147.7C333.3 2082.3 666.7 1951.7 1000 1858C1333.3 1764.3 1666.7 1707.7 2000 1768.7C2333.3 1829.7 2666.7 2008.3 3000 1990.3C3333.3 1972.3 3666.7 1757.7 3833.3 1650.3L4000 1543L4000 3001L3833.3 3001C3666.7 3001 3333.3 3001 3000 3001C2666.7 3001 2333.3 3001 2000 3001C1666.7 3001 1333.3 3001 1000 3001C666.7 3001 333.3 3001 166.7 3001L0 3001Z" fill="#00818a" stroke-linecap="round" stroke-linejoin="miter"></path></svg>